Coordinates
version=1
nRows=13
nColumns=40
inDegrees=yes

Units are S.I. units (second, meters, Newtons, ...)
If the header above contains a line with 'inDegrees', this indicates whether rotational values are in degrees (yes) or radians (no).

endheader
time	pelvis_tilt	pelvis_list	pelvis_rotation	pelvis_tx	pelvis_ty	pelvis_tz	hip_flexion_r	hip_adduction_r	hip_rotation_r	knee_angle_r	knee_angle_r_beta	ankle_angle_r	subtalar_angle_r	mtp_angle_r	hip_flexion_l	hip_adduction_l	hip_rotation_l	knee_angle_l	knee_angle_l_beta	ankle_angle_l	subtalar_angle_l	mtp_angle_l	lumbar_extension	lumbar_bending	lumbar_rotation	arm_flex_r	arm_add_r	arm_rot_r	elbow_flex_r	pro_sup_r	wrist_flex_r	wrist_dev_r	arm_flex_l	arm_add_l	arm_rot_l	elbow_flex_l	pro_sup_l	wrist_flex_l	wrist_dev_l
      0.45000000	     -1.67346279	      7.47975280	    -89.84328641	      0.23096539	      0.92237786	     -0.47949997	     19.02600389	     -6.05276419	     -6.50367497	     66.28232413	      1.15684479	     -5.73571641	      0.00000000	      0.00000000	     19.76346712	      0.89775763	      4.27889484	     16.66657181	      0.29088655	      5.57326579	      0.00000000	      0.00000000	     -2.56296734	      0.25688109	     -4.87643601	      0.00000000	      0.00000000	      0.00000000	      0.00000000	      0.00000000	      0.00000000	      0.00000000	      0.00000000	      0.00000000	      0.00000000	      0.00000000	      0.00000000	      0.00000000	      0.00000000
      0.46000000	     -1.84685449	      7.77826771	    -89.83067791	      0.23188996	      0.92483404	     -0.46773513	     21.39217950	     -5.98947076	     -6.72156599	     66.86547711	      1.16702273	     -4.57797770	      0.00000000	      0.00000000	     18.39102113	      0.76565770	      4.43046538	     15.07363359	      0.26308454	      5.50700054	      0.00000000	      0.00000000	     -2.38104958	      0.49581194	     -5.04219189	      0.00000000	      0.00000000	      0.00000000	      0.00000000	      0.00000000	      0.00000000	      0.00000000	      0.00000000	      0.00000000	      0.00000000	      0.00000000	      0.00000000	      0.00000000	      0.00000000
      0.47000000	     -2.04298697	      8.05196249	    -89.81576584	      0.23270773	      0.92699773	     -0.45598871	     23.62932548	     -5.84941987	     -6.95386350	     67.00882530	      1.16952463	     -3.47708355	      0.00000000	      0.00000000	     17.01831097	      0.60151165	      4.58598754	     13.52473747	      0.23605120	      5.48130081	      0.00000000	      0.00000000	     -2.23634865	      0.76254318	     -5.19439264	      0.00000000	      0.00000000	      0.00000000	      0.00000000	      0.00000000	      0.00000000	      0.00000000	      0.00000000	      0.00000000	      0.00000000	      0.00000000	      0.00000000	      0.00000000	      0.00000000
      0.48000000	     -2.25867254	      8.28655369	    -89.79494868	      0.23340986	      0.92883155	     -0.44417887	     25.69939404	     -5.64183653	     -7.19548045	     66.74429378	      1.16490768	     -2.44664954	     -0.00000000	      0.00000000	     15.63232214	      0.41430953	      4.76660593	     12.03082086	      0.20997744	      5.50756669	     -0.00000000	      0.00000000	     -2.11820073	      1.05487088	     -5.34771021	     -0.00000000	      0.00000000	     -0.00000000	      0.00000000	      0.00000000	      0.00000000	     -0.00000000	     -0.00000000	     -0.00000000	     -0.00000000	      0.00000000	      0.00000000	      0.00000000	     -0.00000000
      0.49000000	     -2.45047583	      8.44969605	    -89.77270746	      0.23397724	      0.93041567	     -0.43229944	     27.56233702	     -5.41034566	     -7.43885661	     66.08241409	      1.15335570	     -1.39210060	      0.00000000	      0.00000000	     14.18530135	      0.23967092	      4.96406271	     10.57075741	      0.18449452	      5.52521468	      0.00000000	      0.00000000	     -2.08787673	      1.29026815	     -5.49772924	      0.00000000	      0.00000000	      0.00000000	      0.00000000	      0.00000000	      0.00000000	      0.00000000	      0.00000000	      0.00000000	      0.00000000	      0.00000000	      0.00000000	      0.00000000	      0.00000000
      0.50000000	     -2.64825565	      8.58321942	    -89.74488094	      0.23438799	      0.93161844	     -0.42036184	     29.27898314	     -5.11207724	     -7.64443983	     65.08650200	      1.13597376	     -0.45822264	      0.00000000	      0.00000000	     12.74655692	      0.04847250	      5.14740545	      9.20240463	      0.16061226	      5.62409617	      0.00000000	      0.00000000	     -2.09075245	      1.51569883	     -5.64971235	      0.00000000	      0.00000000	      0.00000000	      0.00000000	      0.00000000	      0.00000000	      0.00000000	      0.00000000	      0.00000000	      0.00000000	      0.00000000	      0.00000000	      0.00000000	      0.00000000
      0.51000000	     -2.81871955	      8.43276522	    -89.70326007	      0.23480034	      0.93290696	     -0.40804433	     30.48228851	     -4.84763490	     -7.92147939	     63.66347840	      1.11113731	      0.52261813	      0.00000000	      0.00000000	     10.94177718	     -0.12021954	      5.32782587	      7.75228116	      0.13530283	      5.64020253	      0.00000000	      0.00000000	     -2.37907524	      1.72448701	     -5.82761488	      0.00000000	      0.00000000	      0.00000000	      0.00000000	      0.00000000	      0.00000000	      0.00000000	      0.00000000	      0.00000000	      0.00000000	      0.00000000	      0.00000000	      0.00000000	      0.00000000
      0.52000000	     -2.99897998	      8.29044212	    -89.65595456	      0.23504072	      0.93377453	     -0.39572989	     31.55823181	     -4.50059427	     -8.13525551	     61.89341499	      1.08024388	      1.26637124	      0.00000000	      0.00000000	      9.21409900	     -0.31726848	      5.48337812	      6.43272756	      0.11227228	      5.77908857	      0.00000000	      0.00000000	     -2.67406532	      1.91912208	     -6.02244141	      0.00000000	      0.00000000	      0.00000000	      0.00000000	      0.00000000	      0.00000000	      0.00000000	      0.00000000	      0.00000000	      0.00000000	      0.00000000	      0.00000000	      0.00000000	      0.00000000
      0.53000000	     -3.08309594	      8.49956083	    -89.60156825	      0.23521870	      0.93360159	     -0.38380420	     33.00630878	     -4.23900226	     -8.28531570	     59.95899996	      1.04648197	      1.96054937	      0.00000000	      0.00000000	      8.00454137	     -0.41074084	      5.66357013	      5.33204920	      0.09306181	      6.08698948	      0.00000000	      0.00000000	     -2.57347066	      1.99518436	     -6.18547632	     -0.00000000	      0.00000000	     -0.00000000	      0.00000000	      0.00000000	     -0.00000000	     -0.00000000	      0.00000000	     -0.00000000	      0.00000000	      0.00000000	      0.00000000	      0.00000000	      0.00000000
      0.54000000	     -3.19306445	      8.17137332	    -89.52158111	      0.23538139	      0.93397257	     -0.37120148	     33.56453346	     -3.92476882	     -8.48225413	     57.52050255	      1.00392216	      2.51161731	      0.00000000	      0.00000000	      6.09596013	     -0.54692288	      5.82076133	      4.07886777	      0.07118967	      6.25062480	      0.00000000	      0.00000000	     -3.06852713	      2.10796220	     -6.42686238	      0.00000000	      0.00000000	      0.00000000	      0.00000000	      0.00000000	      0.00000000	      0.00000000	      0.00000000	      0.00000000	      0.00000000	      0.00000000	      0.00000000	      0.00000000	      0.00000000
      0.55000000	     -3.21644980	      8.18084799	    -89.41925496	      0.23548681	      0.93336881	     -0.35891091	     34.44442037	     -3.68359261	     -8.60121004	     54.89269229	      0.95805822	      2.94334350	     -0.00000000	      0.00000000	      4.66495610	     -0.58747933	      6.11073998	      3.01352476	      0.05259593	      6.58523370	     -0.00000000	      0.00000000	     -3.18326959	      2.10768710	     -6.62303119	      0.00000000	     -0.00000000	     -0.00000000	      0.00000000	      0.00000000	     -0.00000000	     -0.00000000	      0.00000000	      0.00000000	      0.00000000	      0.00000000	      0.00000000	      0.00000000	     -0.00000000
      0.56000000	     -3.20349791	      8.02571010	    -89.30259113	      0.23553598	      0.93268752	     -0.34641515	     34.96284622	     -3.45410254	     -8.68849582	     51.91988026	      0.90617286	      3.18068881	      0.00000000	      0.00000000	      3.06437664	     -0.60610916	      6.27706615	      1.98026769	      0.03456219	      6.88218356	      0.00000000	      0.00000000	     -3.47781017	      2.05311727	     -6.92548909	      0.00000000	      0.00000000	      0.00000000	      0.00000000	      0.00000000	      0.00000000	      0.00000000	      0.00000000	      0.00000000	      0.00000000	      0.00000000	      0.00000000	      0.00000000	      0.00000000
      0.57000000	     -3.13128068	      7.96594020	    -89.16327769	      0.23557670	      0.93150571	     -0.33395937	     35.46433309	     -3.27759618	     -8.72761160	     48.68690636	      0.84974682	      3.26648132	      0.00000000	      0.00000000	      1.60987551	     -0.56227728	      6.52322390	      1.02969978	      0.01797165	      7.24587977	      0.00000000	      0.00000000	     -3.66362677	      1.92990922	     -7.21703874	      0.00000000	      0.00000000	      0.00000000	      0.00000000	      0.00000000	      0.00000000	      0.00000000	      0.00000000	      0.00000000	      0.00000000	      0.00000000	      0.00000000	      0.00000000	      0.00000000
